# xmcd
#
# Track frame offsets:
#	182
#	22197
#	42722
#	63830
#	81995
#	107445
#	129000
#	150905
#	171777
#	196475
#
# Disc length: 2841 seconds
#
# Revision: 1
# Processed by: cddbd v1.5.2PL0 Copyright (c) Steve Scherf et al.
# Submitted via: audiograbber 1.83.01
#
DISCID=790b170a
DTITLE=scott richardson - revelation blues
DYEAR=1900
DGENRE=
TTITLE0=Revelatin blues
TTITLE1=Mystery doll
TTITLE2=My temtation
TTITLE3=Soul mine
TTITLE4=Nurning women
TTITLE5=New dodge city blues
TTITLE6=Rockin'to my end
TTITLE7=Womanizer
TTITLE8=Don't torture me
TTITLE9=Royal blue vibe
EXTD=
EXTT0=
EXTT1=
EXTT2=
EXTT3=
EXTT4=
EXTT5=
EXTT6=
EXTT7=
EXTT8=
EXTT9=
PLAYORDER=
